<?xml version="1.0" encoding="utf-8"?>
<!-- Generator: Adobe Illustrator 26.3.1, SVG Export Plug-In . SVG Version: 6.00 Build 0)  -->
<svg version="1.1" id="레이어_1" xmlns="http://www.w3.org/2000/svg" xmlns:xlink="http://www.w3.org/1999/xlink" x="0px"
	 y="0px" viewBox="0 0 605.38 154.08" style="enable-background:new 0 0 605.38 154.08;" xml:space="preserve">
<style type="text/css">
	.st0{fill:#FFFFFF;stroke:#6F8AB3;stroke-width:1.7726;stroke-miterlimit:10;}
	.st1{fill:#6F8AB3;}
	.st2{fill:#FFFFFF;}
</style>
<polygon class="st0" points="32.02,0.92 32.02,129.97 604.29,129.97 604.29,59.98 545.23,0.92 "/>
<polygon class="st1" points="0,73.7 0,0 32.02,0 32.02,113.19 "/>
<circle class="st2" cx="16.01" cy="25" r="5.93"/>
<g>
	<path class="st1" d="M348.98,151.09v-9.11h1.98l4.15,5.14h-1.25l4.15-5.14h1.98v9.11h-2.15v-2.97c0-0.72,0.02-1.4,0.05-2.03
		s0.1-1.28,0.21-1.94l0.21,0.73l-3.4,4h-0.86l-3.44-4.02l0.25-0.7c0.1,0.66,0.17,1.31,0.21,1.94c0.04,0.63,0.05,1.31,0.05,2.03v2.97
		H348.98z"/>
	<path class="st1" d="M370.52,151.22c-0.94,0-1.77-0.15-2.49-0.46c-0.72-0.31-1.28-0.73-1.69-1.28c-0.4-0.54-0.61-1.16-0.61-1.85
		c0-0.7,0.2-1.32,0.61-1.86c0.4-0.54,0.96-0.96,1.69-1.27c0.72-0.31,1.55-0.46,2.49-0.46s1.76,0.15,2.47,0.46
		c0.71,0.31,1.27,0.73,1.67,1.27s0.61,1.16,0.61,1.86c0,0.69-0.2,1.31-0.61,1.85c-0.4,0.54-0.96,0.97-1.67,1.28
		C372.28,151.07,371.46,151.22,370.52,151.22z M370.52,149.42c0.49,0,0.93-0.08,1.33-0.23c0.4-0.15,0.72-0.36,0.96-0.63
		c0.24-0.27,0.35-0.58,0.34-0.94c0.01-0.36-0.11-0.67-0.34-0.94c-0.24-0.27-0.56-0.49-0.96-0.64c-0.4-0.15-0.85-0.23-1.33-0.23
		c-0.5,0-0.94,0.08-1.35,0.23c-0.4,0.15-0.72,0.36-0.96,0.63c-0.24,0.27-0.36,0.59-0.36,0.95c0,0.36,0.12,0.67,0.36,0.94
		c0.24,0.27,0.56,0.48,0.96,0.63C369.58,149.35,370.03,149.42,370.52,149.42z"/>
	<path class="st1" d="M384.57,151.22c-0.9,0-1.72-0.11-2.44-0.33s-1.32-0.55-1.78-1l1.28-1.16c0.32,0.29,0.74,0.52,1.26,0.7
		c0.52,0.18,1.1,0.27,1.76,0.27c0.19,0,0.38-0.01,0.57-0.03s0.36-0.05,0.51-0.1s0.28-0.11,0.38-0.19c0.1-0.08,0.14-0.17,0.14-0.29
		c0-0.18-0.15-0.32-0.46-0.4c-0.22-0.06-0.48-0.11-0.78-0.15c-0.3-0.04-0.59-0.08-0.87-0.11c-0.58-0.09-1.1-0.18-1.55-0.27
		c-0.45-0.09-0.84-0.23-1.16-0.42c-0.26-0.17-0.47-0.38-0.62-0.63c-0.15-0.25-0.23-0.56-0.23-0.93c0-0.34,0.1-0.64,0.3-0.9
		c0.2-0.26,0.47-0.49,0.82-0.68c0.35-0.19,0.75-0.33,1.2-0.42s0.94-0.14,1.45-0.14c0.46,0,0.93,0.04,1.41,0.11
		c0.48,0.07,0.94,0.19,1.38,0.34s0.82,0.35,1.14,0.6l-1.03,1.3c-0.23-0.16-0.52-0.3-0.86-0.43c-0.34-0.13-0.7-0.23-1.09-0.31
		s-0.79-0.12-1.2-0.12c-0.18,0-0.36,0.01-0.54,0.02c-0.18,0.01-0.34,0.04-0.48,0.08c-0.14,0.04-0.26,0.1-0.36,0.17
		c-0.1,0.07-0.14,0.16-0.14,0.26c0,0.06,0.02,0.12,0.06,0.18s0.1,0.11,0.18,0.15c0.17,0.1,0.42,0.18,0.75,0.24s0.68,0.11,1.06,0.16
		c0.72,0.1,1.33,0.22,1.83,0.37c0.5,0.15,0.9,0.32,1.19,0.52c0.23,0.16,0.41,0.34,0.51,0.54c0.11,0.2,0.16,0.44,0.16,0.71
		c0,0.47-0.16,0.87-0.47,1.21c-0.32,0.34-0.76,0.6-1.32,0.79C385.98,151.12,385.32,151.22,384.57,151.22z"/>
	<path class="st1" d="M399.09,151.23c-0.47,0-0.9-0.06-1.31-0.17c-0.4-0.11-0.76-0.26-1.05-0.43c-0.3-0.17-0.54-0.36-0.74-0.57
		c-0.19-0.2-0.31-0.39-0.36-0.57l0.71-0.03l-0.13,1.6h-1.93v-9.62h2.09v4.37l-0.69-0.03c0.06-0.2,0.19-0.4,0.38-0.61
		c0.19-0.2,0.44-0.39,0.75-0.57s0.66-0.32,1.05-0.43c0.4-0.11,0.82-0.16,1.28-0.16c0.75,0,1.43,0.15,2.04,0.46
		c0.6,0.31,1.08,0.73,1.44,1.28c0.36,0.54,0.54,1.16,0.54,1.86c0,0.7-0.18,1.33-0.53,1.87s-0.84,0.97-1.45,1.28
		C400.58,151.08,399.88,151.23,399.09,151.23z M398.66,149.45c0.5,0,0.94-0.08,1.3-0.23c0.36-0.16,0.65-0.37,0.85-0.64
		c0.2-0.27,0.31-0.59,0.31-0.94c0-0.37-0.1-0.68-0.31-0.96c-0.2-0.27-0.49-0.48-0.86-0.63c-0.37-0.15-0.8-0.22-1.29-0.22
		s-0.93,0.07-1.3,0.22c-0.37,0.15-0.66,0.36-0.87,0.63c-0.2,0.27-0.31,0.59-0.31,0.96c0,0.36,0.1,0.67,0.31,0.94
		c0.2,0.27,0.49,0.49,0.87,0.64C397.73,149.37,398.17,149.45,398.66,149.45z"/>
	<path class="st1" d="M412.22,151.21c-0.83,0-1.55-0.15-2.15-0.46s-1.07-0.72-1.39-1.26c-0.33-0.54-0.49-1.15-0.49-1.85
		c0-0.7,0.17-1.33,0.51-1.87c0.34-0.54,0.81-0.97,1.42-1.28c0.61-0.31,1.32-0.46,2.13-0.46c0.48,0,0.92,0.05,1.33,0.16
		c0.41,0.11,0.77,0.25,1.08,0.42s0.56,0.36,0.74,0.55c0.18,0.2,0.29,0.38,0.32,0.57l-0.52,0.08v-1.64h2.06v6.91h-2.1v-1.93
		l0.42,0.18c-0.02,0.21-0.12,0.42-0.31,0.64s-0.43,0.42-0.74,0.61c-0.3,0.19-0.66,0.34-1.05,0.45
		C413.09,151.15,412.66,151.21,412.22,151.21z M412.74,149.45c0.51,0,0.95-0.08,1.32-0.23c0.37-0.15,0.65-0.36,0.86-0.64
		s0.31-0.59,0.31-0.94c0-0.36-0.1-0.68-0.31-0.95s-0.49-0.48-0.86-0.64c-0.37-0.16-0.81-0.24-1.32-0.24c-0.49,0-0.93,0.08-1.3,0.24
		c-0.37,0.16-0.66,0.38-0.87,0.64s-0.31,0.59-0.31,0.95c0,0.36,0.1,0.67,0.31,0.94s0.5,0.49,0.87,0.64
		C411.81,149.37,412.25,149.45,412.74,149.45z"/>
	<path class="st1" d="M424.38,144.18h1.97l0.08,1.93l-0.6,0.13c0.14-0.37,0.36-0.73,0.67-1.06c0.31-0.33,0.7-0.61,1.16-0.82
		c0.46-0.21,0.99-0.32,1.57-0.32c0.7,0,1.28,0.13,1.76,0.4c0.48,0.27,0.85,0.63,1.09,1.07s0.37,0.95,0.37,1.5v4.07h-2.08v-3.59
		c0-0.34-0.08-0.63-0.24-0.89c-0.16-0.26-0.38-0.46-0.66-0.6c-0.28-0.14-0.59-0.21-0.95-0.21c-0.33,0-0.62,0.06-0.88,0.18
		c-0.26,0.12-0.47,0.26-0.64,0.44c-0.17,0.18-0.31,0.37-0.4,0.57c-0.09,0.2-0.14,0.4-0.14,0.58v3.53h-1.04c-0.35,0-0.69,0-1.04,0
		V144.18z"/>
	<path class="st1" d="M442.44,151.21c-0.83,0-1.55-0.15-2.15-0.46c-0.6-0.3-1.07-0.72-1.39-1.26c-0.33-0.54-0.49-1.15-0.49-1.85
		c0-0.7,0.17-1.33,0.51-1.87c0.34-0.54,0.81-0.97,1.42-1.28c0.61-0.31,1.32-0.46,2.13-0.46c0.48,0,0.92,0.05,1.33,0.16
		s0.77,0.25,1.08,0.42c0.31,0.17,0.56,0.36,0.74,0.55s0.29,0.38,0.33,0.57l-0.52,0.08v-1.64h2.06v6.91h-2.1v-1.93l0.42,0.18
		c-0.02,0.21-0.12,0.42-0.31,0.64c-0.19,0.22-0.43,0.42-0.73,0.61c-0.3,0.19-0.66,0.34-1.05,0.45
		C443.31,151.15,442.88,151.21,442.44,151.21z M442.96,149.45c0.51,0,0.95-0.08,1.32-0.23c0.37-0.15,0.66-0.36,0.86-0.64
		c0.2-0.27,0.31-0.59,0.31-0.94c0-0.36-0.1-0.68-0.31-0.95c-0.2-0.27-0.49-0.48-0.86-0.64c-0.37-0.16-0.81-0.24-1.32-0.24
		c-0.49,0-0.93,0.08-1.3,0.24c-0.37,0.16-0.66,0.38-0.87,0.64c-0.21,0.27-0.31,0.59-0.31,0.95c0,0.36,0.11,0.67,0.31,0.94
		c0.21,0.27,0.5,0.49,0.87,0.64C442.03,149.37,442.47,149.45,442.96,149.45z"/>
	<path class="st1" d="M454.09,154l-0.73-0.86c0.46-0.23,0.83-0.46,1.11-0.7c0.28-0.24,0.42-0.46,0.42-0.66
		c0-0.15-0.05-0.27-0.16-0.38c-0.11-0.1-0.25-0.18-0.41-0.23c-0.21-0.09-0.41-0.21-0.59-0.37c-0.19-0.16-0.28-0.38-0.28-0.67
		c0-0.38,0.14-0.66,0.42-0.85c0.28-0.18,0.62-0.27,1.02-0.27c0.33,0,0.64,0.09,0.94,0.27c0.29,0.18,0.54,0.42,0.72,0.72
		c0.19,0.3,0.28,0.64,0.28,1.01c0,0.29-0.08,0.59-0.23,0.89c-0.16,0.3-0.36,0.58-0.62,0.86c-0.26,0.27-0.55,0.52-0.88,0.73
		C454.76,153.7,454.43,153.87,454.09,154z"/>
	<path class="st1" d="M475.5,151.22c-0.96,0-1.81-0.15-2.53-0.46s-1.29-0.73-1.69-1.27c-0.4-0.54-0.6-1.15-0.6-1.82
		c0-0.56,0.12-1.07,0.36-1.52c0.24-0.45,0.58-0.83,1-1.14c0.42-0.31,0.91-0.55,1.46-0.72c0.55-0.17,1.13-0.25,1.74-0.25
		c0.62,0,1.19,0.08,1.71,0.25s0.98,0.41,1.38,0.72c0.4,0.31,0.7,0.67,0.92,1.1c0.22,0.43,0.32,0.9,0.3,1.42l-0.01,0.64h-7.33
		l-0.3-1.3h5.94l-0.22,0.3v-0.26c-0.04-0.23-0.16-0.44-0.38-0.62c-0.22-0.18-0.5-0.32-0.85-0.42c-0.34-0.1-0.72-0.16-1.13-0.16
		c-0.47,0-0.9,0.06-1.3,0.18c-0.4,0.12-0.72,0.31-0.96,0.58c-0.24,0.26-0.37,0.61-0.37,1.05c0,0.37,0.13,0.71,0.4,1.01
		c0.26,0.3,0.64,0.54,1.12,0.71c0.48,0.17,1.05,0.26,1.7,0.26c0.66,0,1.19-0.07,1.6-0.21c0.41-0.14,0.71-0.27,0.91-0.37l0.88,1.33
		c-0.32,0.2-0.68,0.38-1.08,0.53c-0.4,0.15-0.82,0.27-1.28,0.34S475.98,151.22,475.5,151.22z"/>
	<path class="st1" d="M488.09,151.09l-3.88-6.91h2.43l2.76,5.47l-0.64,0.05l2.81-5.52h2.41l-4,6.91H488.09z"/>
	<path class="st1" d="M502.82,151.22c-0.96,0-1.81-0.15-2.53-0.46s-1.29-0.73-1.69-1.27c-0.4-0.54-0.6-1.15-0.6-1.82
		c0-0.56,0.12-1.07,0.36-1.52c0.24-0.45,0.58-0.83,1-1.14c0.42-0.31,0.91-0.55,1.46-0.72c0.55-0.17,1.13-0.25,1.74-0.25
		c0.62,0,1.19,0.08,1.71,0.25s0.98,0.41,1.38,0.72c0.4,0.31,0.7,0.67,0.92,1.1c0.22,0.43,0.32,0.9,0.3,1.42l-0.01,0.64h-7.33
		l-0.3-1.3h5.94l-0.22,0.3v-0.26c-0.04-0.23-0.16-0.44-0.38-0.62c-0.22-0.18-0.5-0.32-0.85-0.42c-0.34-0.1-0.72-0.16-1.13-0.16
		c-0.47,0-0.9,0.06-1.3,0.18c-0.4,0.12-0.72,0.31-0.96,0.58c-0.24,0.26-0.37,0.61-0.37,1.05c0,0.37,0.13,0.71,0.4,1.01
		c0.26,0.3,0.64,0.54,1.12,0.71c0.48,0.17,1.05,0.26,1.7,0.26c0.66,0,1.19-0.07,1.6-0.21c0.41-0.14,0.71-0.27,0.91-0.37l0.88,1.33
		c-0.32,0.2-0.68,0.38-1.08,0.53c-0.4,0.15-0.82,0.27-1.28,0.34S503.3,151.22,502.82,151.22z"/>
	<path class="st1" d="M513.18,151.09v-6.91h1.98l0.09,2.59l-0.65,0.01c0.14-0.51,0.37-0.97,0.7-1.39c0.33-0.41,0.72-0.74,1.17-0.99
		s0.92-0.37,1.42-0.37c0.32,0,0.63,0.04,0.94,0.1c0.31,0.07,0.56,0.16,0.76,0.29l-0.56,2.23c-0.18-0.13-0.43-0.23-0.75-0.31
		c-0.32-0.07-0.63-0.11-0.93-0.11c-0.34,0-0.64,0.05-0.91,0.16c-0.26,0.1-0.49,0.24-0.66,0.42s-0.31,0.36-0.4,0.57
		c-0.09,0.21-0.13,0.42-0.13,0.64v3.07H513.18z"/>
	<path class="st1" d="M526.52,154.08l2.15-3.7l-0.14,1.01l-4.19-7.22h2.47l1.96,3.77c0.17,0.33,0.34,0.66,0.5,0.99
		c0.16,0.33,0.3,0.66,0.41,0.99h-0.55c0.12-0.29,0.26-0.6,0.42-0.96c0.16-0.35,0.32-0.69,0.49-1.02l1.94-3.77h2.42l-4.06,6.99
		l-1.67,2.92H526.52z"/>
	<path class="st1" d="M541.37,151.09l-2.59-6.91H541l1.48,4.67l-0.27-0.03l1.78-3.77h1.48l1.9,3.77l-0.25,0.03l1.52-4.67h2.23
		l-2.7,6.91h-1.63l-2.23-4.84l0.95-0.07l-2.3,4.91H541.37z"/>
	<path class="st1" d="M556.32,141.46h2.04v4.65l-0.62,0.2c0.09-0.4,0.31-0.77,0.63-1.11c0.32-0.34,0.73-0.62,1.23-0.83
		s1.03-0.32,1.61-0.32c0.69,0,1.28,0.14,1.75,0.41s0.83,0.63,1.07,1.08c0.24,0.45,0.36,0.93,0.36,1.45v4.11h-2.08v-3.55
		c0-0.36-0.08-0.68-0.24-0.94c-0.16-0.26-0.38-0.46-0.65-0.6s-0.59-0.21-0.96-0.21c-0.3,0-0.58,0.05-0.83,0.16
		c-0.25,0.1-0.47,0.25-0.65,0.42s-0.32,0.38-0.42,0.6s-0.15,0.45-0.15,0.7v3.44h-1.04c-0.35,0-0.69,0-1.04,0V141.46z"/>
	<path class="st1" d="M575.15,151.22c-0.96,0-1.81-0.15-2.53-0.46c-0.72-0.31-1.29-0.73-1.68-1.27s-0.6-1.15-0.6-1.82
		c0-0.56,0.12-1.07,0.36-1.52c0.24-0.45,0.58-0.83,1-1.14c0.42-0.31,0.91-0.55,1.46-0.72c0.55-0.17,1.13-0.25,1.74-0.25
		c0.62,0,1.19,0.08,1.71,0.25c0.52,0.17,0.98,0.41,1.38,0.72c0.39,0.31,0.7,0.67,0.92,1.1c0.22,0.43,0.32,0.9,0.3,1.42l-0.01,0.64
		h-7.33l-0.3-1.3h5.94l-0.22,0.3v-0.26c-0.04-0.23-0.16-0.44-0.38-0.62s-0.5-0.32-0.85-0.42c-0.34-0.1-0.72-0.16-1.13-0.16
		c-0.47,0-0.9,0.06-1.3,0.18c-0.4,0.12-0.72,0.31-0.96,0.58c-0.24,0.26-0.36,0.61-0.36,1.05c0,0.37,0.13,0.71,0.4,1.01
		c0.26,0.3,0.64,0.54,1.12,0.71c0.48,0.17,1.05,0.26,1.7,0.26c0.66,0,1.19-0.07,1.6-0.21c0.41-0.14,0.71-0.27,0.91-0.37l0.88,1.33
		c-0.32,0.2-0.68,0.38-1.08,0.53c-0.4,0.15-0.82,0.27-1.28,0.34S575.63,151.22,575.15,151.22z"/>
	<path class="st1" d="M585.52,151.09v-6.91h1.98l0.09,2.59l-0.65,0.01c0.14-0.51,0.37-0.97,0.7-1.39s0.72-0.74,1.17-0.99
		s0.92-0.37,1.42-0.37c0.32,0,0.63,0.04,0.94,0.1s0.56,0.16,0.76,0.29l-0.56,2.23c-0.18-0.13-0.43-0.23-0.75-0.31
		c-0.32-0.07-0.63-0.11-0.93-0.11c-0.34,0-0.64,0.05-0.91,0.16c-0.26,0.1-0.49,0.24-0.66,0.42s-0.31,0.36-0.4,0.57
		c-0.09,0.21-0.13,0.42-0.13,0.64v3.07H585.52z"/>
	<path class="st1" d="M601.33,151.22c-0.96,0-1.81-0.15-2.53-0.46s-1.29-0.73-1.69-1.27c-0.4-0.54-0.6-1.15-0.6-1.82
		c0-0.56,0.12-1.07,0.36-1.52c0.24-0.45,0.57-0.83,1-1.14c0.42-0.31,0.91-0.55,1.46-0.72s1.13-0.25,1.74-0.25
		c0.62,0,1.19,0.08,1.71,0.25s0.98,0.41,1.38,0.72c0.4,0.31,0.7,0.67,0.92,1.1c0.22,0.43,0.32,0.9,0.3,1.42l-0.01,0.64h-7.33
		l-0.3-1.3h5.93l-0.22,0.3v-0.26c-0.04-0.23-0.16-0.44-0.38-0.62s-0.5-0.32-0.85-0.42s-0.72-0.16-1.13-0.16
		c-0.47,0-0.9,0.06-1.3,0.18c-0.4,0.12-0.72,0.31-0.96,0.58s-0.36,0.61-0.36,1.05c0,0.37,0.13,0.71,0.4,1.01
		c0.27,0.3,0.64,0.54,1.12,0.71c0.48,0.17,1.05,0.26,1.7,0.26c0.66,0,1.19-0.07,1.6-0.21c0.41-0.14,0.71-0.27,0.91-0.37l0.88,1.33
		c-0.32,0.2-0.68,0.38-1.08,0.53c-0.4,0.15-0.82,0.27-1.28,0.34S601.8,151.22,601.33,151.22z"/>
</g>
<rect x="68.86" y="141.5" class="st1" width="10.52" height="10.52"/>
<rect x="50.44" y="141.5" class="st1" width="10.52" height="10.52"/>
<rect x="32.02" y="141.5" class="st1" width="10.52" height="10.52"/>
</svg>
