<?xml version="1.0" encoding="utf-8"?>
<!-- Generator: Adobe Illustrator 26.3.1, SVG Export Plug-In . SVG Version: 6.00 Build 0)  -->
<svg version="1.1" id="레이어_1" xmlns="http://www.w3.org/2000/svg" xmlns:xlink="http://www.w3.org/1999/xlink" x="0px"
	 y="0px" viewBox="0 0 1707.22 846.97" style="enable-background:new 0 0 1707.22 846.97;" xml:space="preserve">
<style type="text/css">
	.st0{fill:none;stroke:#7795C4;stroke-width:7.5462;stroke-miterlimit:10;}
	.st1{fill:none;stroke:#D4E3F2;stroke-width:1.0498;stroke-miterlimit:10;}
	.st2{fill:#D4E3F2;}
</style>
<polyline class="st0" points="1672.78,9.69 1703.5,9.69 1703.5,40.41 "/>
<polyline class="st0" points="34.54,843.29 3.81,843.29 3.81,812.57 "/>
<g>
	<rect x="24.49" y="30.89" class="st1" width="1658.14" height="792.73"/>
	<line class="st1" x1="79.89" y1="30.95" x2="79.89" y2="824.17"/>
	<line class="st1" x1="137.12" y1="30.95" x2="137.12" y2="824.17"/>
	<line class="st1" x1="194.35" y1="30.95" x2="194.35" y2="824.17"/>
	<line class="st1" x1="251.59" y1="30.95" x2="251.59" y2="824.17"/>
	<line class="st1" x1="308.82" y1="30.95" x2="308.82" y2="824.17"/>
	<line class="st1" x1="366.06" y1="30.95" x2="366.06" y2="824.17"/>
	<line class="st1" x1="423.29" y1="30.95" x2="423.29" y2="824.17"/>
	<line class="st1" x1="480.53" y1="30.95" x2="480.53" y2="824.17"/>
	<line class="st1" x1="537.76" y1="30.95" x2="537.76" y2="824.17"/>
	<line class="st1" x1="595" y1="30.95" x2="595" y2="824.17"/>
	<line class="st1" x1="652.23" y1="30.95" x2="652.23" y2="824.17"/>
	<line class="st1" x1="709.46" y1="30.95" x2="709.46" y2="824.17"/>
	<line class="st1" x1="766.7" y1="30.95" x2="766.7" y2="824.17"/>
	<line class="st1" x1="1682.31" y1="87.99" x2="23.89" y2="87.99"/>
	<line class="st1" x1="1682.31" y1="144.66" x2="23.89" y2="144.66"/>
	<line class="st1" x1="1682.31" y1="201.33" x2="23.89" y2="201.33"/>
	<line class="st1" x1="1682.31" y1="258.01" x2="23.89" y2="258.01"/>
	<line class="st1" x1="1682.31" y1="314.68" x2="23.89" y2="314.68"/>
	<line class="st1" x1="1682.31" y1="371.35" x2="23.89" y2="371.35"/>
	<line class="st1" x1="1682.31" y1="428.02" x2="23.89" y2="428.02"/>
	<line class="st1" x1="1682.31" y1="484.69" x2="23.89" y2="484.69"/>
	<line class="st1" x1="1682.31" y1="541.36" x2="23.89" y2="541.36"/>
	<line class="st1" x1="1682.31" y1="598.03" x2="23.89" y2="598.03"/>
	<line class="st1" x1="1682.31" y1="654.71" x2="23.89" y2="654.71"/>
	<line class="st1" x1="1682.31" y1="711.38" x2="23.89" y2="711.38"/>
	<line class="st1" x1="1682.31" y1="768.05" x2="23.89" y2="768.05"/>
	<line class="st1" x1="823.93" y1="30.95" x2="823.93" y2="824.17"/>
	<line class="st1" x1="881.17" y1="30.95" x2="881.17" y2="824.17"/>
	<line class="st1" x1="938.4" y1="30.95" x2="938.4" y2="824.17"/>
	<line class="st1" x1="995.64" y1="30.95" x2="995.64" y2="824.17"/>
	<line class="st1" x1="1052.87" y1="30.95" x2="1052.87" y2="824.17"/>
	<line class="st1" x1="1110.1" y1="30.95" x2="1110.1" y2="824.17"/>
	<line class="st1" x1="1167.34" y1="30.95" x2="1167.34" y2="824.17"/>
	<line class="st1" x1="1224.57" y1="30.95" x2="1224.57" y2="824.17"/>
	<line class="st1" x1="1281.81" y1="30.95" x2="1281.81" y2="824.17"/>
	<line class="st1" x1="1339.04" y1="30.95" x2="1339.04" y2="824.17"/>
	<line class="st1" x1="1396.28" y1="30.95" x2="1396.28" y2="824.17"/>
	<line class="st1" x1="1453.51" y1="30.95" x2="1453.51" y2="824.17"/>
	<line class="st1" x1="1510.75" y1="30.95" x2="1510.75" y2="824.17"/>
	<line class="st1" x1="1567.98" y1="30.95" x2="1567.98" y2="824.17"/>
	<line class="st1" x1="1625.21" y1="30.95" x2="1625.21" y2="824.17"/>
	<line class="st1" x1="1682.45" y1="30.95" x2="1682.45" y2="808.3"/>
</g>
<polygon class="st2" points="204.8,0 23.99,0 23.99,30.95 242.97,30.95 "/>
<polygon class="st2" points="239.6,0 218.92,0 257.03,30.95 277.77,30.95 "/>
<polygon class="st2" points="274.23,0 253.55,0 291.66,30.95 312.4,30.95 "/>
</svg>
