<?xml version="1.0" encoding="utf-8"?>
<!-- Generator: Adobe Illustrator 26.3.1, SVG Export Plug-In . SVG Version: 6.00 Build 0)  -->
<svg version="1.1" id="레이어_1" xmlns="http://www.w3.org/2000/svg" xmlns:xlink="http://www.w3.org/1999/xlink" x="0px"
	 y="0px" viewBox="0 0 865.13 288.28" style="enable-background:new 0 0 865.13 288.28;" xml:space="preserve">
<style type="text/css">
	.st0{fill:#040000;}
	.st1{fill:#FFFFFF;stroke:#DD4599;stroke-width:3;stroke-miterlimit:10;}
	.st2{fill:#DD4599;}
</style>
<g>
	<polygon class="st0" points="0,34.25 0,288.28 838.31,288.28 838.31,150.51 722.05,34.25 	"/>
	<polygon class="st1" points="30,258.28 30,64.25 709.62,64.25 808.31,162.94 808.31,258.28 	"/>
	<polygon class="st0" points="224.32,0 0,0 0,34.25 266.56,34.25 	"/>
	<polygon class="st0" points="264.28,0 241.39,0 283.57,34.25 306.52,34.25 	"/>
	<polygon class="st0" points="300.33,0 277.44,0 319.62,34.25 342.58,34.25 	"/>
	<g>
		<g>
			<path class="st2" d="M44.9,26.28c-0.74,0-1.3-0.15-1.67-0.44c-0.37-0.29-0.56-0.69-0.56-1.19c0-0.43,0.19-0.81,0.56-1.14
				c0.37-0.33,0.93-0.5,1.67-0.5c0.74,0,1.3,0.15,1.66,0.45s0.55,0.7,0.55,1.2c0,0.42-0.19,0.79-0.56,1.12S45.63,26.28,44.9,26.28z
				 M43.95,21.41c-0.18-0.66-0.37-1.37-0.55-2.13c-0.18-0.76-0.33-1.55-0.45-2.37c-0.12-0.82-0.17-1.62-0.17-2.41v-1.43h4.19v1.43
				c0,0.76-0.05,1.54-0.16,2.35c-0.11,0.81-0.25,1.6-0.43,2.38c-0.18,0.77-0.38,1.5-0.59,2.18H43.95z"/>
			<path class="st2" d="M64.81,26.08l-4.48-12.8h3.24l2.16,6.24c0.09,0.24,0.18,0.54,0.28,0.88c0.1,0.34,0.21,0.7,0.31,1.07
				s0.19,0.73,0.27,1.06c0.08,0.33,0.14,0.62,0.17,0.85h-0.68c0.06-0.33,0.15-0.7,0.27-1.12s0.26-0.87,0.42-1.34
				s0.34-0.93,0.52-1.37l1.96-4.59h2.62l1.92,4.55c0.18,0.45,0.36,0.91,0.53,1.38c0.17,0.47,0.32,0.91,0.45,1.33
				c0.13,0.42,0.21,0.78,0.25,1.1l-0.62,0.05c0.02-0.2,0.06-0.42,0.12-0.68c0.06-0.26,0.12-0.53,0.18-0.82
				c0.07-0.29,0.14-0.58,0.22-0.88c0.08-0.29,0.16-0.57,0.25-0.84c0.08-0.27,0.16-0.5,0.24-0.71l2.47-6.14h3.09l-5.03,12.8h-2.38
				l-3.36-7.97l0.53,0.04l-3.27,7.94H64.81z"/>
			<path class="st2" d="M82.22,26.08l6.36-12.8h2.93l6.33,12.8h-3.22l-3.79-7.59c-0.13-0.27-0.26-0.52-0.37-0.76
				c-0.11-0.24-0.21-0.47-0.31-0.69c-0.1-0.23-0.19-0.45-0.27-0.68s-0.16-0.46-0.25-0.7l0.71-0.02c-0.09,0.26-0.17,0.5-0.27,0.74
				c-0.09,0.24-0.19,0.47-0.29,0.7c-0.1,0.23-0.21,0.47-0.32,0.7c-0.11,0.24-0.23,0.48-0.35,0.72l-3.77,7.57H82.22z M85.16,23.81
				l1.02-2.34h7.66l0.42,2.34H85.16z"/>
			<path class="st2" d="M101.64,26.08v-12.8h7.42c1.02,0,1.9,0.17,2.62,0.5c0.72,0.33,1.27,0.81,1.65,1.43
				c0.38,0.62,0.57,1.34,0.57,2.17c0,0.82-0.21,1.55-0.64,2.2c-0.43,0.65-1.01,1.17-1.74,1.54c-0.73,0.37-1.55,0.56-2.45,0.56h-4.46
				v4.41H101.64z M104.6,19.29h4.1c0.37,0,0.7-0.07,1.01-0.22c0.31-0.15,0.56-0.35,0.75-0.61c0.19-0.26,0.28-0.57,0.28-0.92
				s-0.09-0.65-0.28-0.9c-0.19-0.24-0.44-0.43-0.76-0.57c-0.32-0.13-0.66-0.2-1.04-0.2h-4.06V19.29z M111.04,26.08l-4.35-5.78
				l3.25-0.46l4.72,6.24H111.04z"/>
			<path class="st2" d="M119.7,26.08v-12.8h2.96l9.27,9.14l-0.42-0.09c-0.07-0.46-0.13-0.91-0.17-1.33
				c-0.04-0.43-0.08-0.83-0.1-1.22c-0.02-0.39-0.04-0.77-0.06-1.13c-0.01-0.37-0.02-0.73-0.03-1.1c-0.01-0.37-0.01-0.73-0.01-1.1
				v-3.16h3.02v12.8h-3l-9.56-9.44l0.75,0.13c0.04,0.18,0.07,0.39,0.1,0.62c0.03,0.23,0.06,0.49,0.09,0.79s0.06,0.62,0.09,0.98
				c0.03,0.36,0.05,0.76,0.06,1.2c0.01,0.44,0.02,0.92,0.02,1.44v4.28H119.7z"/>
			<path class="st2" d="M140.27,26.08v-2.74h3.44v-7.31h-3.44v-2.74h10v2.74h-3.46v7.31h3.46v2.74H140.27z"/>
			<path class="st2" d="M156.38,26.08v-12.8h2.96l9.27,9.14l-0.42-0.09c-0.07-0.46-0.13-0.91-0.17-1.33
				c-0.04-0.43-0.08-0.83-0.1-1.22c-0.02-0.39-0.04-0.77-0.06-1.13c-0.01-0.37-0.02-0.73-0.03-1.1c-0.01-0.37-0.01-0.73-0.01-1.1
				v-3.16h3.02v12.8h-3l-9.56-9.44l0.75,0.13c0.04,0.18,0.07,0.39,0.1,0.62c0.03,0.23,0.06,0.49,0.09,0.79
				c0.03,0.29,0.06,0.62,0.09,0.98s0.05,0.76,0.06,1.2c0.01,0.44,0.02,0.92,0.02,1.44v4.28H156.38z"/>
			<path class="st2" d="M183.43,26.26c-1.11,0-2.13-0.14-3.07-0.41c-0.94-0.27-1.76-0.69-2.45-1.23s-1.24-1.24-1.63-2.08
				s-0.59-1.81-0.59-2.92c0-0.95,0.2-1.83,0.61-2.62c0.41-0.8,0.98-1.5,1.72-2.09c0.74-0.6,1.61-1.06,2.61-1.39
				c1-0.33,2.08-0.49,3.25-0.49c0.99,0,1.88,0.1,2.68,0.31c0.8,0.21,1.5,0.47,2.12,0.79c0.62,0.32,1.11,0.66,1.49,1.02l-1.88,2.1
				c-0.38-0.28-0.79-0.53-1.23-0.74c-0.44-0.21-0.93-0.39-1.46-0.53c-0.53-0.14-1.11-0.21-1.73-0.21c-0.69,0-1.34,0.1-1.93,0.29
				c-0.59,0.2-1.11,0.47-1.55,0.81c-0.45,0.35-0.79,0.76-1.03,1.23c-0.24,0.47-0.37,0.98-0.37,1.53c0,0.72,0.13,1.33,0.39,1.83
				c0.26,0.5,0.62,0.9,1.07,1.2c0.45,0.3,0.96,0.52,1.54,0.66c0.57,0.14,1.18,0.21,1.81,0.21c0.65,0,1.24-0.06,1.79-0.18
				c0.55-0.12,1.03-0.29,1.44-0.5c0.41-0.21,0.72-0.47,0.94-0.78c0.22-0.3,0.32-0.64,0.31-1V20.7l0.42,0.77h-5.08v-2.4h7.66
				c0.02,0.18,0.04,0.38,0.05,0.59c0.01,0.21,0.02,0.4,0.02,0.56s0,0.26,0,0.31c0,0.95-0.19,1.79-0.57,2.51
				c-0.38,0.72-0.91,1.31-1.61,1.78c-0.69,0.47-1.53,0.83-2.5,1.07C185.69,26.14,184.61,26.26,183.43,26.26z"/>
		</g>
	</g>
	
		<rect x="853.54" y="276.69" transform="matrix(-1.836970e-16 1 -1 -1.836970e-16 1141.8192 -576.8491)" class="st0" width="11.58" height="11.58"/>
	
		<rect x="853.54" y="256.41" transform="matrix(-1.836970e-16 1 -1 -1.836970e-16 1121.537 -597.1313)" class="st0" width="11.58" height="11.58"/>
	
		<rect x="853.54" y="236.13" transform="matrix(-1.836970e-16 1 -1 -1.836970e-16 1101.2548 -617.4135)" class="st0" width="11.58" height="11.58"/>
</g>
</svg>
