<?xml version="1.0" encoding="utf-8"?>
<!-- Generator: Adobe Illustrator 26.3.1, SVG Export Plug-In . SVG Version: 6.00 Build 0)  -->
<svg version="1.1" id="레이어_1" xmlns="http://www.w3.org/2000/svg" xmlns:xlink="http://www.w3.org/1999/xlink" x="0px"
	 y="0px" viewBox="0 0 1920 1080" style="enable-background:new 0 0 1920 1080;" xml:space="preserve">
<style type="text/css">
	.st0{fill:url(#SVGID_1_);}
	.st1{fill:none;stroke:#FFFFFF;stroke-width:3;stroke-miterlimit:10;}
	.st2{fill:url(#SVGID_00000176761988491353133010000015147250669594192013_);}
	.st3{fill:url(#SVGID_00000087380984706147458490000013611376501105746313_);}
	.st4{fill:none;stroke:#FFFFFF;stroke-width:2.1547;stroke-miterlimit:10;}
	.st5{fill:url(#SVGID_00000048480885779321308260000010621882656576853424_);}
	.st6{fill:none;stroke:#7795C4;stroke-width:1.4127;stroke-miterlimit:10;}
	.st7{fill:none;stroke:#7795C4;stroke-width:0.7063;stroke-miterlimit:10;}
	.st8{fill:#7795C4;}
</style>
<g>
	<g>
		
			<linearGradient id="SVGID_1_" gradientUnits="userSpaceOnUse" x1="-8363.5391" y1="-7462.1782" x2="-8363.5391" y2="-7610.3291" gradientTransform="matrix(-1 0 0 -1 -7403.8975 -7315.5591)">
			<stop  offset="0" style="stop-color:#738FBB"/>
			<stop  offset="0.1679" style="stop-color:#788BB9;stop-opacity:0.8321"/>
			<stop  offset="0.3767" style="stop-color:#8881B4;stop-opacity:0.6233"/>
			<stop  offset="0.607" style="stop-color:#A16FAC;stop-opacity:0.393"/>
			<stop  offset="0.8512" style="stop-color:#C457A1;stop-opacity:0.1488"/>
			<stop  offset="1" style="stop-color:#DD4599;stop-opacity:0"/>
			<stop  offset="1" style="stop-color:#231815"/>
		</linearGradient>
		<polygon class="st0" points="106.89,134.61 1812.4,134.61 1694.64,299.25 224.73,299.25 		"/>
		<line class="st1" x1="1645.54" y1="299.24" x2="1755.51" y2="134.47"/>
		<line class="st1" x1="1594.8" y1="299.24" x2="1696.63" y2="134.47"/>
		<line class="st1" x1="1544.07" y1="299.22" x2="1637.76" y2="134.47"/>
		<line class="st1" x1="1493.32" y1="299.24" x2="1578.88" y2="134.47"/>
		<line class="st1" x1="1442.59" y1="299.24" x2="1520" y2="134.47"/>
		<line class="st1" x1="1391.85" y1="299.24" x2="1461.13" y2="134.47"/>
		<line class="st1" x1="1341.11" y1="299.24" x2="1402.25" y2="134.47"/>
		<line class="st1" x1="1290.38" y1="299.24" x2="1343.38" y2="134.47"/>
		<line class="st1" x1="1239.64" y1="299.24" x2="1284.5" y2="134.47"/>
		<line class="st1" x1="1188.9" y1="299.24" x2="1225.63" y2="134.47"/>
		<line class="st1" x1="1138.16" y1="299.24" x2="1166.75" y2="134.47"/>
		<line class="st1" x1="1087.43" y1="299.24" x2="1107.87" y2="134.47"/>
		<line class="st1" x1="1036.69" y1="299.24" x2="1049" y2="134.47"/>
		<line class="st1" x1="204" y1="269.86" x2="1716.21" y2="269.86"/>
		<line class="st1" x1="181.9" y1="238.98" x2="1738.31" y2="238.98"/>
		<line class="st1" x1="158.48" y1="206.24" x2="1761.74" y2="206.24"/>
		<line class="st1" x1="133.6" y1="171.47" x2="1786.63" y2="171.47"/>
		<line class="st1" x1="107.13" y1="134.47" x2="1813.11" y2="134.47"/>
		<line class="st1" x1="985.95" y1="299.24" x2="990.12" y2="134.47"/>
		<line class="st1" x1="935.21" y1="299.24" x2="931.25" y2="134.47"/>
		<line class="st1" x1="884.48" y1="299.24" x2="872.37" y2="134.47"/>
		<line class="st1" x1="833.74" y1="299.24" x2="813.49" y2="134.47"/>
		<line class="st1" x1="783" y1="299.24" x2="754.62" y2="134.47"/>
		<line class="st1" x1="732.26" y1="299.24" x2="695.74" y2="134.47"/>
		<line class="st1" x1="681.53" y1="299.24" x2="636.87" y2="134.47"/>
		<line class="st1" x1="630.79" y1="299.24" x2="577.99" y2="134.47"/>
		<line class="st1" x1="580.05" y1="299.24" x2="519.11" y2="134.47"/>
		<line class="st1" x1="529.31" y1="299.24" x2="460.24" y2="134.47"/>
		<line class="st1" x1="478.58" y1="299.24" x2="401.36" y2="134.47"/>
		<line class="st1" x1="427.84" y1="299.24" x2="342.49" y2="134.47"/>
		<line class="st1" x1="377.1" y1="299.24" x2="283.61" y2="134.47"/>
		<line class="st1" x1="326.37" y1="299.24" x2="224.73" y2="134.47"/>
		<line class="st1" x1="275.63" y1="299.24" x2="165.86" y2="134.47"/>
	</g>
	<g>
		
			<linearGradient id="SVGID_00000082364865066458040840000011677174626764379811_" gradientUnits="userSpaceOnUse" x1="-8363.5391" y1="-559.2478" x2="-8363.5391" y2="-707.3985" gradientTransform="matrix(-1 0 0 1 -7403.8975 1410.0908)">
			<stop  offset="0" style="stop-color:#738FBB"/>
			<stop  offset="0.1679" style="stop-color:#788BB9;stop-opacity:0.8321"/>
			<stop  offset="0.3767" style="stop-color:#8881B4;stop-opacity:0.6233"/>
			<stop  offset="0.607" style="stop-color:#A16FAC;stop-opacity:0.393"/>
			<stop  offset="0.8512" style="stop-color:#C457A1;stop-opacity:0.1488"/>
			<stop  offset="1" style="stop-color:#DD4599;stop-opacity:0"/>
			<stop  offset="1" style="stop-color:#231815"/>
		</linearGradient>
		<polygon style="fill:url(#SVGID_00000082364865066458040840000011677174626764379811_);" points="106.89,862.86 1812.4,862.86 
			1694.64,698.22 224.73,698.22 		"/>
		<line class="st1" x1="1645.54" y1="698.23" x2="1755.51" y2="862.99"/>
		<line class="st1" x1="1594.8" y1="698.23" x2="1696.63" y2="862.99"/>
		<line class="st1" x1="1544.07" y1="698.24" x2="1637.76" y2="862.99"/>
		<line class="st1" x1="1493.32" y1="698.23" x2="1578.88" y2="862.99"/>
		<line class="st1" x1="1442.59" y1="698.23" x2="1520" y2="862.99"/>
		<line class="st1" x1="1391.85" y1="698.23" x2="1461.13" y2="862.99"/>
		<line class="st1" x1="1341.11" y1="698.23" x2="1402.25" y2="862.99"/>
		<line class="st1" x1="1290.38" y1="698.23" x2="1343.38" y2="862.99"/>
		<line class="st1" x1="1239.64" y1="698.23" x2="1284.5" y2="862.99"/>
		<line class="st1" x1="1188.9" y1="698.23" x2="1225.63" y2="862.99"/>
		<line class="st1" x1="1138.16" y1="698.23" x2="1166.75" y2="862.99"/>
		<line class="st1" x1="1087.43" y1="698.23" x2="1107.87" y2="862.99"/>
		<line class="st1" x1="1036.69" y1="698.23" x2="1049" y2="862.99"/>
		<line class="st1" x1="204" y1="727.6" x2="1716.21" y2="727.6"/>
		<line class="st1" x1="181.9" y1="758.48" x2="1738.31" y2="758.48"/>
		<line class="st1" x1="158.48" y1="791.22" x2="1761.74" y2="791.22"/>
		<line class="st1" x1="133.6" y1="825.99" x2="1786.63" y2="825.99"/>
		<line class="st1" x1="107.13" y1="862.99" x2="1813.11" y2="862.99"/>
		<line class="st1" x1="985.95" y1="698.23" x2="990.12" y2="862.99"/>
		<line class="st1" x1="935.21" y1="698.23" x2="931.25" y2="862.99"/>
		<line class="st1" x1="884.48" y1="698.23" x2="872.37" y2="862.99"/>
		<line class="st1" x1="833.74" y1="698.23" x2="813.49" y2="862.99"/>
		<line class="st1" x1="783" y1="698.23" x2="754.62" y2="862.99"/>
		<line class="st1" x1="732.26" y1="698.23" x2="695.74" y2="862.99"/>
		<line class="st1" x1="681.53" y1="698.23" x2="636.87" y2="862.99"/>
		<line class="st1" x1="630.79" y1="698.23" x2="577.99" y2="862.99"/>
		<line class="st1" x1="580.05" y1="698.23" x2="519.11" y2="862.99"/>
		<line class="st1" x1="529.31" y1="698.23" x2="460.24" y2="862.99"/>
		<line class="st1" x1="478.58" y1="698.23" x2="401.36" y2="862.99"/>
		<line class="st1" x1="427.84" y1="698.23" x2="342.49" y2="862.99"/>
		<line class="st1" x1="377.1" y1="698.23" x2="283.61" y2="862.99"/>
		<line class="st1" x1="326.37" y1="698.23" x2="224.73" y2="862.99"/>
		<line class="st1" x1="275.63" y1="698.23" x2="165.86" y2="862.99"/>
	</g>
	<g>
		
			<linearGradient id="SVGID_00000096778168426926860250000002631494327203527054_" gradientUnits="userSpaceOnUse" x1="-8363.5391" y1="-781.1678" x2="-8363.5391" y2="-857.5938" gradientTransform="matrix(-1 0 0 1 -7403.8975 1410.0908)">
			<stop  offset="0" style="stop-color:#738FBB"/>
			<stop  offset="0.1679" style="stop-color:#788BB9;stop-opacity:0.8321"/>
			<stop  offset="0.3767" style="stop-color:#8881B4;stop-opacity:0.6233"/>
			<stop  offset="0.607" style="stop-color:#A16FAC;stop-opacity:0.393"/>
			<stop  offset="0.8512" style="stop-color:#C457A1;stop-opacity:0.1488"/>
			<stop  offset="1" style="stop-color:#DD4599;stop-opacity:0"/>
			<stop  offset="1" style="stop-color:#231815"/>
		</linearGradient>
		<polygon style="fill:url(#SVGID_00000096778168426926860250000002631494327203527054_);" points="106.89,635.12 1812.4,635.12 
			1694.64,550.19 224.73,550.19 		"/>
		<line class="st4" x1="1645.54" y1="550.19" x2="1755.51" y2="635.19"/>
		<line class="st4" x1="1594.8" y1="550.19" x2="1696.63" y2="635.19"/>
		<line class="st4" x1="1544.07" y1="550.2" x2="1637.76" y2="635.19"/>
		<line class="st4" x1="1493.32" y1="550.19" x2="1578.88" y2="635.19"/>
		<line class="st4" x1="1442.59" y1="550.19" x2="1520" y2="635.19"/>
		<line class="st4" x1="1391.85" y1="550.19" x2="1461.13" y2="635.19"/>
		<line class="st4" x1="1341.11" y1="550.19" x2="1402.25" y2="635.19"/>
		<line class="st4" x1="1290.38" y1="550.19" x2="1343.38" y2="635.19"/>
		<line class="st4" x1="1239.64" y1="550.19" x2="1284.5" y2="635.19"/>
		<line class="st4" x1="1188.9" y1="550.19" x2="1225.63" y2="635.19"/>
		<line class="st4" x1="1138.16" y1="550.19" x2="1166.75" y2="635.19"/>
		<line class="st4" x1="1087.43" y1="550.19" x2="1107.87" y2="635.19"/>
		<line class="st4" x1="1036.69" y1="550.19" x2="1049" y2="635.19"/>
		<line class="st4" x1="204" y1="565.35" x2="1716.21" y2="565.35"/>
		<line class="st4" x1="181.9" y1="581.28" x2="1738.31" y2="581.28"/>
		<line class="st4" x1="158.48" y1="598.17" x2="1761.74" y2="598.17"/>
		<line class="st4" x1="133.6" y1="616.1" x2="1786.63" y2="616.1"/>
		<line class="st4" x1="107.13" y1="635.19" x2="1813.11" y2="635.19"/>
		<line class="st4" x1="985.95" y1="550.19" x2="990.12" y2="635.19"/>
		<line class="st4" x1="935.21" y1="550.19" x2="931.25" y2="635.19"/>
		<line class="st4" x1="884.48" y1="550.19" x2="872.37" y2="635.19"/>
		<line class="st4" x1="833.74" y1="550.19" x2="813.49" y2="635.19"/>
		<line class="st4" x1="783" y1="550.19" x2="754.62" y2="635.19"/>
		<line class="st4" x1="732.26" y1="550.19" x2="695.74" y2="635.19"/>
		<line class="st4" x1="681.53" y1="550.19" x2="636.87" y2="635.19"/>
		<line class="st4" x1="630.79" y1="550.19" x2="577.99" y2="635.19"/>
		<line class="st4" x1="580.05" y1="550.19" x2="519.11" y2="635.19"/>
		<line class="st4" x1="529.31" y1="550.19" x2="460.24" y2="635.19"/>
		<line class="st4" x1="478.58" y1="550.19" x2="401.36" y2="635.19"/>
		<line class="st4" x1="427.84" y1="550.19" x2="342.49" y2="635.19"/>
		<line class="st4" x1="377.1" y1="550.19" x2="283.61" y2="635.19"/>
		<line class="st4" x1="326.37" y1="550.19" x2="224.73" y2="635.19"/>
		<line class="st4" x1="275.63" y1="550.19" x2="165.86" y2="635.19"/>
	</g>
	<g>
		
			<linearGradient id="SVGID_00000111879100994505711690000005721394078344647556_" gradientUnits="userSpaceOnUse" x1="-8363.5391" y1="-8675.0791" x2="-8363.5391" y2="-8751.5049" gradientTransform="matrix(-1 0 0 -1 -7403.8975 -8306.54)">
			<stop  offset="0" style="stop-color:#738FBB"/>
			<stop  offset="0.1679" style="stop-color:#788BB9;stop-opacity:0.8321"/>
			<stop  offset="0.3767" style="stop-color:#8881B4;stop-opacity:0.6233"/>
			<stop  offset="0.607" style="stop-color:#A16FAC;stop-opacity:0.393"/>
			<stop  offset="0.8512" style="stop-color:#C457A1;stop-opacity:0.1488"/>
			<stop  offset="1" style="stop-color:#DD4599;stop-opacity:0"/>
			<stop  offset="1" style="stop-color:#231815"/>
		</linearGradient>
		<polygon style="fill:url(#SVGID_00000111879100994505711690000005721394078344647556_);" points="106.89,362.34 1812.4,362.34 
			1694.64,447.27 224.73,447.27 		"/>
		<line class="st4" x1="1645.54" y1="447.27" x2="1755.51" y2="362.27"/>
		<line class="st4" x1="1594.8" y1="447.27" x2="1696.63" y2="362.27"/>
		<line class="st4" x1="1544.07" y1="447.26" x2="1637.76" y2="362.27"/>
		<line class="st4" x1="1493.32" y1="447.27" x2="1578.88" y2="362.27"/>
		<line class="st4" x1="1442.59" y1="447.27" x2="1520" y2="362.27"/>
		<line class="st4" x1="1391.85" y1="447.27" x2="1461.13" y2="362.27"/>
		<line class="st4" x1="1341.11" y1="447.27" x2="1402.25" y2="362.27"/>
		<line class="st4" x1="1290.38" y1="447.27" x2="1343.38" y2="362.27"/>
		<line class="st4" x1="1239.64" y1="447.27" x2="1284.5" y2="362.27"/>
		<line class="st4" x1="1188.9" y1="447.27" x2="1225.63" y2="362.27"/>
		<line class="st4" x1="1138.16" y1="447.27" x2="1166.75" y2="362.27"/>
		<line class="st4" x1="1087.43" y1="447.27" x2="1107.87" y2="362.27"/>
		<line class="st4" x1="1036.69" y1="447.27" x2="1049" y2="362.27"/>
		<line class="st4" x1="204" y1="432.11" x2="1716.21" y2="432.11"/>
		<line class="st4" x1="181.9" y1="416.19" x2="1738.31" y2="416.19"/>
		<line class="st4" x1="158.48" y1="399.3" x2="1761.74" y2="399.3"/>
		<line class="st4" x1="133.6" y1="381.36" x2="1786.63" y2="381.36"/>
		<line class="st4" x1="107.13" y1="362.27" x2="1813.11" y2="362.27"/>
		<line class="st4" x1="985.95" y1="447.27" x2="990.12" y2="362.27"/>
		<line class="st4" x1="935.21" y1="447.27" x2="931.25" y2="362.27"/>
		<line class="st4" x1="884.48" y1="447.27" x2="872.37" y2="362.27"/>
		<line class="st4" x1="833.74" y1="447.27" x2="813.49" y2="362.27"/>
		<line class="st4" x1="783" y1="447.27" x2="754.62" y2="362.27"/>
		<line class="st4" x1="732.26" y1="447.27" x2="695.74" y2="362.27"/>
		<line class="st4" x1="681.53" y1="447.27" x2="636.87" y2="362.27"/>
		<line class="st4" x1="630.79" y1="447.27" x2="577.99" y2="362.27"/>
		<line class="st4" x1="580.05" y1="447.27" x2="519.11" y2="362.27"/>
		<line class="st4" x1="529.31" y1="447.27" x2="460.24" y2="362.27"/>
		<line class="st4" x1="478.58" y1="447.27" x2="401.36" y2="362.27"/>
		<line class="st4" x1="427.84" y1="447.27" x2="342.49" y2="362.27"/>
		<line class="st4" x1="377.1" y1="447.27" x2="283.61" y2="362.27"/>
		<line class="st4" x1="326.37" y1="447.27" x2="224.73" y2="362.27"/>
		<line class="st4" x1="275.63" y1="447.27" x2="165.86" y2="362.27"/>
	</g>
	<g>
		<g>
			<polyline class="st6" points="1301.73,934.22 1301.65,945.53 623.21,945.53 623.3,934.22 			"/>
			<line class="st6" x1="1240.05" y1="934.22" x2="1239.97" y2="945.53"/>
			<line class="st6" x1="1178.38" y1="934.22" x2="1178.29" y2="945.53"/>
			<line class="st6" x1="1116.7" y1="934.22" x2="1116.62" y2="945.53"/>
			<line class="st6" x1="1055.03" y1="934.22" x2="1054.94" y2="945.53"/>
			<line class="st6" x1="993.35" y1="934.22" x2="993.27" y2="945.53"/>
			<line class="st6" x1="931.68" y1="934.22" x2="931.59" y2="945.53"/>
			<line class="st6" x1="870" y1="934.22" x2="869.92" y2="945.53"/>
			<line class="st6" x1="808.33" y1="934.22" x2="808.24" y2="945.53"/>
			<line class="st6" x1="746.65" y1="934.22" x2="746.57" y2="945.53"/>
			<line class="st6" x1="684.97" y1="934.22" x2="684.89" y2="945.53"/>
			<g>
				<line class="st7" x1="632.11" y1="937.76" x2="632.02" y2="945.53"/>
				<line class="st7" x1="640.92" y1="937.76" x2="640.84" y2="945.53"/>
				<line class="st7" x1="649.73" y1="937.76" x2="649.65" y2="945.53"/>
				<line class="st7" x1="658.54" y1="937.76" x2="658.46" y2="945.53"/>
				<line class="st7" x1="667.35" y1="937.76" x2="667.27" y2="945.53"/>
				<line class="st7" x1="676.16" y1="937.76" x2="676.08" y2="945.53"/>
			</g>
			<g>
				<line class="st7" x1="693.81" y1="937.76" x2="693.72" y2="945.53"/>
				<line class="st7" x1="702.62" y1="937.76" x2="702.53" y2="945.53"/>
				<line class="st7" x1="711.43" y1="937.76" x2="711.34" y2="945.53"/>
				<line class="st7" x1="720.24" y1="937.76" x2="720.16" y2="945.53"/>
				<line class="st7" x1="729.05" y1="937.76" x2="728.97" y2="945.53"/>
				<line class="st7" x1="737.86" y1="937.76" x2="737.78" y2="945.53"/>
			</g>
			<g>
				<line class="st7" x1="755.51" y1="937.76" x2="755.42" y2="945.53"/>
				<line class="st7" x1="764.32" y1="937.76" x2="764.23" y2="945.53"/>
				<line class="st7" x1="773.13" y1="937.76" x2="773.04" y2="945.53"/>
				<line class="st7" x1="781.94" y1="937.76" x2="781.85" y2="945.53"/>
				<line class="st7" x1="790.75" y1="937.76" x2="790.66" y2="945.53"/>
				<line class="st7" x1="799.56" y1="937.76" x2="799.47" y2="945.53"/>
			</g>
			<g>
				<line class="st7" x1="817.2" y1="937.76" x2="817.12" y2="945.53"/>
				<line class="st7" x1="826.01" y1="937.76" x2="825.93" y2="945.53"/>
				<line class="st7" x1="834.83" y1="937.76" x2="834.74" y2="945.53"/>
				<line class="st7" x1="843.64" y1="937.76" x2="843.55" y2="945.53"/>
				<line class="st7" x1="852.45" y1="937.76" x2="852.36" y2="945.53"/>
				<line class="st7" x1="861.26" y1="937.76" x2="861.17" y2="945.53"/>
			</g>
			<g>
				<line class="st7" x1="878.9" y1="937.76" x2="878.82" y2="945.53"/>
				<line class="st7" x1="887.71" y1="937.76" x2="887.63" y2="945.53"/>
				<line class="st7" x1="896.52" y1="937.76" x2="896.44" y2="945.53"/>
				<line class="st7" x1="905.33" y1="937.76" x2="905.25" y2="945.53"/>
				<line class="st7" x1="914.15" y1="937.76" x2="914.06" y2="945.53"/>
				<line class="st7" x1="922.96" y1="937.76" x2="922.87" y2="945.53"/>
			</g>
			<g>
				<line class="st7" x1="940.6" y1="937.76" x2="940.52" y2="945.53"/>
				<line class="st7" x1="949.41" y1="937.76" x2="949.33" y2="945.53"/>
				<line class="st7" x1="958.22" y1="937.76" x2="958.14" y2="945.53"/>
				<line class="st7" x1="967.03" y1="937.76" x2="966.95" y2="945.53"/>
				<line class="st7" x1="975.84" y1="937.76" x2="975.76" y2="945.53"/>
				<line class="st7" x1="984.65" y1="937.76" x2="984.57" y2="945.53"/>
			</g>
			<g>
				<line class="st7" x1="1002.3" y1="937.76" x2="1002.21" y2="945.53"/>
				<line class="st7" x1="1011.11" y1="937.76" x2="1011.02" y2="945.53"/>
				<line class="st7" x1="1019.92" y1="937.76" x2="1019.83" y2="945.53"/>
				<line class="st7" x1="1028.73" y1="937.76" x2="1028.65" y2="945.53"/>
				<line class="st7" x1="1037.54" y1="937.76" x2="1037.46" y2="945.53"/>
				<line class="st7" x1="1046.35" y1="937.76" x2="1046.27" y2="945.53"/>
			</g>
			<g>
				<line class="st7" x1="1064" y1="937.76" x2="1063.91" y2="945.53"/>
				<line class="st7" x1="1072.81" y1="937.76" x2="1072.72" y2="945.53"/>
				<line class="st7" x1="1081.62" y1="937.76" x2="1081.53" y2="945.53"/>
				<line class="st7" x1="1090.43" y1="937.76" x2="1090.34" y2="945.53"/>
				<line class="st7" x1="1099.24" y1="937.76" x2="1099.15" y2="945.53"/>
				<line class="st7" x1="1108.05" y1="937.76" x2="1107.97" y2="945.53"/>
			</g>
			<g>
				<line class="st7" x1="1125.69" y1="937.76" x2="1125.61" y2="945.53"/>
				<line class="st7" x1="1134.5" y1="937.76" x2="1134.42" y2="945.53"/>
				<line class="st7" x1="1143.32" y1="937.76" x2="1143.23" y2="945.53"/>
				<line class="st7" x1="1152.13" y1="937.76" x2="1152.04" y2="945.53"/>
				<line class="st7" x1="1160.94" y1="937.76" x2="1160.85" y2="945.53"/>
				<line class="st7" x1="1169.75" y1="937.76" x2="1169.66" y2="945.53"/>
			</g>
			<g>
				<line class="st7" x1="1187.39" y1="937.76" x2="1187.31" y2="945.53"/>
				<line class="st7" x1="1196.2" y1="937.76" x2="1196.12" y2="945.53"/>
				<line class="st7" x1="1205.01" y1="937.76" x2="1204.93" y2="945.53"/>
				<line class="st7" x1="1213.82" y1="937.76" x2="1213.74" y2="945.53"/>
				<line class="st7" x1="1222.64" y1="937.76" x2="1222.55" y2="945.53"/>
				<line class="st7" x1="1231.45" y1="937.76" x2="1231.36" y2="945.53"/>
			</g>
			<g>
				<line class="st7" x1="1249.09" y1="937.76" x2="1249.01" y2="945.53"/>
				<line class="st7" x1="1257.9" y1="937.76" x2="1257.82" y2="945.53"/>
				<line class="st7" x1="1266.71" y1="937.76" x2="1266.63" y2="945.53"/>
				<line class="st7" x1="1275.52" y1="937.76" x2="1275.44" y2="945.53"/>
				<line class="st7" x1="1284.33" y1="937.76" x2="1284.25" y2="945.53"/>
				<line class="st7" x1="1293.14" y1="937.76" x2="1293.06" y2="945.53"/>
			</g>
		</g>
		<polygon class="st8" points="623.21,930.75 628.16,922.19 618.27,922.19 		"/>
		<polygon class="st8" points="1052.35,930.75 1057.3,922.19 1047.41,922.19 		"/>
	</g>
</g>
</svg>
